<?xml version="1.0" encoding="UTF-8"?>
<svg id="Layer_1" data-name="Layer 1" xmlns="http://www.w3.org/2000/svg" xmlns:xlink="http://www.w3.org/1999/xlink" viewBox="0 0 500 116.96">
  <defs>
    <style>
      .cls-1 {
        fill: url(#linear-gradient);
      }

      .cls-1, .cls-2 {
        stroke-width: 0px;
      }

      .cls-2 {
        fill: #091836;
      }
    </style>
    <linearGradient id="linear-gradient" x1="33.97" y1="134.44" x2="140.83" y2="27.58" gradientUnits="userSpaceOnUse">
      <stop offset="0" stop-color="#0149ff"/>
      <stop offset="1" stop-color="#00a1ff"/>
    </linearGradient>
  </defs>
  <polygon class="cls-1" points="156.26 74.4 124.88 74.4 106.92 43.27 90.09 73.26 98.69 88.7 147.35 88.7 131.46 116.91 82.5 116.91 73.26 100.46 64.53 116.28 15.69 116.15 0 88.44 48.33 88.57 99.96 0 113.24 0 156.26 74.4"/>
  <g>
    <g>
      <path class="cls-2" d="M290.51,74.51h-27.02l-6.15-7.59h-46.75l-6.15,7.59h-27.02l43.04-53.13h27.02l43.04,53.13ZM245.05,51.74l-11.08-13.66-11.08,13.66h22.16Z"/>
      <path class="cls-2" d="M293.55,21.38h79.7c3.34,0,6.32.61,8.96,1.82,2.63,1.21,4.86,2.82,6.68,4.82,1.82,2,3.21,4.26,4.17,6.79.96,2.53,1.44,5.14,1.44,7.82,0,2.28-.37,4.53-1.1,6.75-.73,2.23-1.8,4.28-3.19,6.15-1.39,1.87-3.09,3.49-5.09,4.86-2,1.37-4.26,2.35-6.79,2.96l16.17,11.16h-30.97l-15.41-10.63h-30.59v10.63h-23.98V21.38ZM317.54,39.6v6.07h49.64c2.23,0,3.34-1.01,3.34-3.04s-1.11-3.04-3.34-3.04h-49.64Z"/>
      <path class="cls-2" d="M399.05,21.38h23.98v29.15l42.2-29.15h34.76l-38.48,26.57,38.48,26.57h-34.76l-21.1-14.57-21.1,14.57h-23.98V21.38Z"/>
    </g>
    <g>
      <polygon class="cls-2" points="201.53 80.37 176.11 80.37 175.5 83.96 186.02 83.96 180.91 116.51 185.31 116.51 190.41 83.96 200.93 83.96 201.53 80.37"/>
      <path class="cls-2" d="M211.64,89.67c-7.78,0-13.8,6.62-13.8,15.97,0,6.62,4.25,11.32,11.42,11.32,5.36,0,10.01-2.63,11.62-8.09h-4.19c-1.01,3.03-3.59,4.6-7.28,4.6-5.05,0-7.28-2.83-7.28-7.63,0-.61,0-1.16.05-1.72h19.56l.15-.96c1.41-9.05-3.08-13.49-10.26-13.49ZM218.01,100.74h-15.31c1.31-5.41,4.95-7.63,8.69-7.63,4.8,0,7.03,2.32,6.62,7.63Z"/>
      <path class="cls-2" d="M239.33,93.16c3.69,0,6.42,1.26,6.92,5.81h3.99c-.35-6.42-4.9-9.3-10.71-9.3-7.18,0-13.7,5.46-13.7,15.21,0,7.08,4.4,12.03,12.33,12.03,5.86,0,10.56-3.54,11.67-9.8h-3.94c-.71,4.09-3.94,6.37-7.63,6.37-5.41,0-8.14-3.03-8.14-8.59,0-7.63,3.94-11.73,9.2-11.73Z"/>
      <path class="cls-2" d="M270.51,89.62c-4.3,0-7.33,2.58-8.9,5.15l2.73-17.33h-4.19l-6.17,39.07h4.19l2.43-15.36c.81-5,4.6-7.93,9-7.93,3.64,0,5.26,2.12,4.55,6.52l-2.68,16.78h4.19l2.53-15.82c1.26-7.99-2.17-11.07-7.68-11.07Z"/>
      <path class="cls-2" d="M299.12,83.46c4.5,0,7.58,1.62,8.04,6.42h4.04c-.15-6.42-4.7-9.96-11.67-9.96-7.43,0-12.13,4.55-12.13,10.01s3.69,7.78,10.51,9.75c6.06,1.77,7.78,3.34,7.78,6.62,0,4.35-3.08,7.18-8.49,7.13-6.62,0-9.15-3.89-9.35-7.93h-4.35c.05,5.96,4.35,11.47,13.44,11.47,8.04,0,13.04-4.75,13.04-11.12,0-5.41-3.39-7.73-10.56-9.91-6.27-1.92-7.83-3.28-7.83-6.17,0-3.54,2.32-6.32,7.53-6.32Z"/>
      <path class="cls-2" d="M329.44,89.67c-7.93,0-14.05,6.67-14.05,15.52,0,6.72,4.45,11.73,11.78,11.73,8.29,0,14.1-6.62,14.1-15.62,0-6.82-4.5-11.62-11.83-11.62ZM327.37,113.48c-5.16,0-7.63-3.29-7.63-8.29,0-6.87,3.79-12.08,9.45-12.08,5.05,0,7.68,3.28,7.68,8.29,0,6.87-3.54,12.08-9.5,12.08Z"/>
      <polygon class="cls-2" points="345.46 116.51 349.7 116.51 355.87 77.44 351.62 77.44 345.46 116.51"/>
      <path class="cls-2" d="M377.1,105.44c-.81,5-4.5,7.93-8.89,7.93-3.64,0-5.1-2.37-4.45-6.52l2.68-16.78h-4.19l-2.53,15.82c-1.21,7.68,2.07,11.07,7.58,11.07,4.3,0,7.33-2.53,9.2-5.71-.25,1.77-.35,3.74-.25,5.26h3.99c-.1-2.17,0-4.3.56-7.88l2.93-18.55h-4.19l-2.43,15.36Z"/>
      <path class="cls-2" d="M397.97,84.06h-4.19l-.96,6.02h-3.79l-.56,3.54h3.79l-2.48,15.67c-.66,4.3,1.21,7.58,6.42,7.58,1.21,0,2.32-.2,3.23-.61l.56-3.49c-.96.35-2.12.56-3.13.56-2.38,0-3.39-1.01-2.93-3.89l2.53-15.82h6.01l.56-3.54h-6.01l.96-6.02Z"/>
      <path class="cls-2" d="M412.98,79.01c-1.52,0-2.83,1.31-2.83,2.83s1.26,2.73,2.78,2.73,2.78-1.31,2.78-2.83-1.21-2.73-2.73-2.73Z"/>
      <polygon class="cls-2" points="405.44 116.51 409.64 116.51 413.83 90.08 409.64 90.08 405.44 116.51"/>
      <path class="cls-2" d="M432.08,89.67c-7.93,0-14.05,6.67-14.05,15.52,0,6.72,4.45,11.73,11.78,11.73,8.29,0,14.1-6.62,14.1-15.62,0-6.82-4.5-11.62-11.83-11.62ZM430.01,113.48c-5.16,0-7.63-3.29-7.63-8.29,0-6.87,3.79-12.08,9.45-12.08,5.05,0,7.68,3.28,7.68,8.29,0,6.87-3.54,12.08-9.5,12.08Z"/>
      <path class="cls-2" d="M464.52,89.62c-4.3,0-7.43,2.53-9.25,5.71.2-1.77.3-3.79.3-5.26h-3.94c-.05,2.22-.15,4.3-.71,7.88l-2.93,18.55h4.19l2.43-15.36c.81-5,4.6-7.93,9-7.93,3.69,0,5.26,2.12,4.55,6.52l-2.68,16.78h4.19l2.53-15.82c1.26-7.99-2.17-11.07-7.68-11.07Z"/>
      <path class="cls-2" d="M488.83,101.09c-4.14-1.01-5.36-2.02-5.36-4.04,0-2.48,1.87-3.94,5.15-3.94s5.36,1.62,5.51,4.14h3.94c-.3-5.36-4.19-7.63-9.35-7.63-4.75,0-9.2,2.63-9.2,7.68,0,3.99,2.12,6.06,8.04,7.53,3.99,1.01,5.36,2.02,5.36,4.3,0,2.73-1.72,4.35-5.41,4.35-4.7,0-6.17-2.28-6.37-5.1h-4.09c.1,4.55,3.29,8.59,10.31,8.59,5.91,0,9.65-3.18,9.65-8.04s-2.93-6.52-8.19-7.83Z"/>
    </g>
  </g>
</svg>